# xmcd
#
# Track frame offsets: 
#        150
#        23944
#        52142
#        78627
#        108103
#        150709
#        180470
#        213009
#        239052
#        262109
#
# Disc length: 3969 seconds
#
# Revision: 1
# Processed by: cddbd v1.5.2PL0 Copyright (c) Steve Scherf et al.
# Submitted via: ExactAudioCopy v0.99pb4
#
DISCID=860f7f0a
DTITLE=Mitch Kashmar - Live At Labatt
DYEAR=2008
DGENRE=Blues
TTITLE0=I Got No Reason
TTITLE1=Dirty Deal
TTITLE2=Whiskey Drinkin' Woman
TTITLE3=Evil Man Blues
TTITLE4=Song For My Father
TTITLE5=Sugar Sweet
TTITLE6=You're The One
TTITLE7=Lollipop Mama
TTITLE8=Wake Up and Worry
TTITLE9=Castle Rock
EXTD=
EXTT0=
EXTT1=
EXTT2=
EXTT3=
EXTT4=
EXTT5=
EXTT6=
EXTT7=
EXTT8=
EXTT9=
PLAYORDER=
